<svg xmlns="http://www.w3.org/2000/svg" width="385" height="90" viewBox="0 0 385 90" fill="none"><path d="M109.6 64.7703C106.75 66.6203 102.75 67.3203 98.6 67.3203C88.5 67.3203 81.8 60.6203 81.8 50.5703C81.8 40.2203 88.6 33.3203 98.8 33.3203C102.8 33.3203 106.55 34.1703 109.05 35.7203C109.311 35.8215 109.526 36.0145 109.655 36.263C109.784 36.5116 109.818 36.7986 109.75 37.0703L108.3 41.1703C108 41.9703 107.4 42.1703 106.8 41.9203C104.282 40.7858 101.561 40.1734 98.8 40.1203C93.2 40.1203 89.45 44.3203 89.45 50.5703C89.45 56.5703 93.1 60.5703 98.6 60.5703C101.558 60.7194 104.504 60.0992 107.15 58.7703C107.95 58.4203 108.6 58.6203 108.8 59.2703L110.1 63.1203C110.203 63.4128 110.209 63.7303 110.12 64.027C110.03 64.3236 109.848 64.5839 109.6 64.7703V64.7703ZM90.65 25.6203C90.05 24.8203 90.25 24.4703 91.2 24.0203L94 22.7203C94.7 22.3703 95.15 22.9203 95.55 23.4703L98.65 27.5703L101.65 23.4703C102.05 22.9203 102.55 22.3703 103.25 22.7203L106 24.0003C107 24.4003 107.2 24.8003 106.6 25.6003L102.4 30.5003C102.209 30.7237 101.971 30.9022 101.703 31.0232C101.435 31.1442 101.144 31.2047 100.85 31.2003H96.35C96.0645 31.1974 95.783 31.1335 95.5242 31.0127C95.2655 30.892 95.0356 30.7172 94.85 30.5003L90.65 25.6203Z" fill="#009D4C"></path><path d="M138.78 66.3697L133.83 67.0197C133.28 67.1197 133.03 66.7697 132.83 66.2697L132.03 63.6697C131.054 64.8374 129.829 65.7714 128.444 66.4031C127.06 67.0347 125.552 67.348 124.03 67.3197C117.03 67.3197 112.42 62.3697 112.42 54.7697C112.42 46.9697 116.72 41.7697 123.18 41.7697C124.769 41.7603 126.341 42.1002 127.783 42.7655C129.226 43.4308 130.505 44.4052 131.53 45.6197L132.08 43.3697C132.149 43.1102 132.307 42.8831 132.526 42.7279C132.746 42.5726 133.012 42.499 133.28 42.5197H137.23C137.366 42.5129 137.501 42.5338 137.628 42.581C137.755 42.6282 137.871 42.7008 137.97 42.7943C138.068 42.8879 138.146 43.0004 138.199 43.1251C138.253 43.2498 138.28 43.3841 138.28 43.5197V59.2197L139.48 65.2697C139.68 65.9997 139.33 66.3197 138.78 66.3697ZM130.78 58.9197L130.73 50.8197C130.005 50.0198 129.12 49.38 128.134 48.9409C127.147 48.5018 126.08 48.2733 125 48.2697C121.6 48.2697 119.34 50.8697 119.34 54.7697C119.34 58.6697 121.6 61.3197 124.95 61.3197C126.035 61.3419 127.112 61.1403 128.115 60.7274C129.118 60.3144 130.025 59.699 130.78 58.9197V58.9197Z" fill="#009D4C"></path><path d="M152.12 67.3202C149.368 67.3229 146.638 66.8318 144.06 65.8702C143.51 65.6202 143.41 65.0702 143.36 64.5202L143.16 60.8202C143.16 60.0202 143.91 59.8202 144.66 60.0702C147.024 61.0748 149.553 61.6342 152.12 61.7202C155.27 61.7202 156.97 60.9702 156.97 59.5702C156.97 55.3202 143.26 59.5702 143.26 49.1702C143.26 44.7202 146.96 41.8202 153.77 41.8202C156.627 41.795 159.462 42.3212 162.12 43.3702C162.384 43.4678 162.602 43.6602 162.731 43.9098C162.861 44.1595 162.892 44.4484 162.82 44.7202L161.87 48.0202C161.836 48.1787 161.769 48.3279 161.671 48.4574C161.574 48.5869 161.449 48.6935 161.306 48.7697C161.163 48.846 161.006 48.89 160.844 48.8987C160.682 48.9074 160.52 48.8806 160.37 48.8202C158.271 47.976 156.032 47.535 153.77 47.5202C151.46 47.5202 150.26 48.3202 150.26 49.5202C150.26 53.8702 163.87 49.9702 163.97 59.6702C164 64.2702 159.37 67.3202 152.12 67.3202Z" fill="#009D4C"></path><path d="M199.35 34.92V65.47C199.364 65.6095 199.349 65.7504 199.305 65.8835C199.261 66.0166 199.189 66.139 199.095 66.2427C199.001 66.3464 198.886 66.4292 198.757 66.4855C198.629 66.5419 198.49 66.5707 198.35 66.57H193.5C193.118 66.6315 192.727 66.5898 192.366 66.4491C192.006 66.3085 191.689 66.074 191.45 65.77L176.3 45.12V65.72C176.313 65.8347 176.299 65.9508 176.261 66.0597C176.223 66.1686 176.161 66.2675 176.079 66.3492C175.998 66.4308 175.899 66.493 175.79 66.5312C175.681 66.5694 175.565 66.5827 175.45 66.57H170C169.885 66.5827 169.769 66.5694 169.66 66.5312C169.551 66.493 169.453 66.4308 169.371 66.3492C169.289 66.2675 169.227 66.1686 169.189 66.0597C169.151 65.9508 169.137 65.8347 169.15 65.72V35.52C169.136 35.3805 169.151 35.2397 169.195 35.1066C169.239 34.9734 169.311 34.8511 169.405 34.7473C169.499 34.6436 169.614 34.5609 169.743 34.5045C169.871 34.4481 170.01 34.4193 170.15 34.42L174.45 33.87C174.847 33.7855 175.261 33.8159 175.641 33.9576C176.022 34.0993 176.355 34.3464 176.6 34.67L192.25 56.67V34.92C192.237 34.8053 192.251 34.6892 192.289 34.5803C192.327 34.4714 192.389 34.3725 192.471 34.2909C192.553 34.2093 192.651 34.147 192.76 34.1088C192.869 34.0706 192.985 34.0573 193.1 34.07H198.6C198.708 34.0673 198.815 34.0884 198.914 34.1316C199.013 34.1748 199.102 34.2392 199.173 34.3202C199.245 34.4012 199.298 34.4969 199.328 34.6005C199.359 34.7041 199.366 34.8132 199.35 34.92Z" fill="#98C93B"></path><path d="M231.05 66.3697L226.05 67.0197C225.5 67.1197 225.25 66.7697 225.05 66.2697L224.25 63.6697C223.274 64.8374 222.049 65.7714 220.664 66.4031C219.28 67.0347 217.772 67.348 216.25 67.3197C209.3 67.3197 204.65 62.3697 204.65 54.7697C204.65 46.9697 208.95 41.7697 215.4 41.7697C216.989 41.7603 218.561 42.1002 220.003 42.7655C221.446 43.4308 222.725 44.4052 223.75 45.6197L224.3 43.3697C224.369 43.1102 224.527 42.8831 224.746 42.7279C224.966 42.5726 225.232 42.499 225.5 42.5197H229.5C229.765 42.5197 230.02 42.6251 230.207 42.8126C230.395 43.0002 230.5 43.2545 230.5 43.5197V59.2197L231.7 65.2697C232 65.9997 231.6 66.3197 231.05 66.3697ZM223.05 58.9197L223 50.8197C222.272 50.0173 221.385 49.376 220.395 48.9369C219.404 48.4977 218.333 48.2705 217.25 48.2697C213.85 48.2697 211.6 50.8697 211.6 54.7697C211.6 58.6697 213.85 61.3197 217.2 61.3197C218.288 61.3447 219.369 61.1444 220.376 60.7314C221.383 60.3184 222.293 59.7015 223.05 58.9197V58.9197Z" fill="#98C93B"></path><path d="M261.47 61.3199V65.5199C261.47 65.6555 261.443 65.7898 261.389 65.9145C261.336 66.0392 261.258 66.1517 261.16 66.2453C261.061 66.3388 260.945 66.4114 260.818 66.4586C260.691 66.5058 260.555 66.5267 260.42 66.5199H237.27C236.909 66.5495 236.546 66.4752 236.226 66.3056C235.906 66.1361 235.64 65.8784 235.462 65.563C235.283 65.2476 235.198 64.8876 235.217 64.5256C235.236 64.1636 235.359 63.8146 235.57 63.5199L250.12 40.3199H237.07C236.936 40.3304 236.801 40.3118 236.675 40.2652C236.549 40.2187 236.435 40.1454 236.339 40.0504C236.244 39.9553 236.171 39.8408 236.125 39.7147C236.078 39.5886 236.059 39.4539 236.07 39.3199V35.1199C236.07 34.8547 236.175 34.6003 236.363 34.4128C236.55 34.2252 236.805 34.1199 237.07 34.1199H258.22C258.594 34.0867 258.969 34.163 259.3 34.3397C259.63 34.5163 259.903 34.7854 260.083 35.1143C260.263 35.4432 260.344 35.8174 260.315 36.1914C260.286 36.5653 260.149 36.9227 259.92 37.2199L245.27 60.3199H260.42C260.558 60.3014 260.698 60.3142 260.831 60.3572C260.963 60.4001 261.084 60.4723 261.185 60.5682C261.285 60.6642 261.363 60.7815 261.413 60.9116C261.462 61.0417 261.482 61.1812 261.47 61.3199V61.3199Z" fill="#009D4C"></path><path d="M290.39 66.4197L285.49 67.0196C284.94 67.0196 284.69 66.7696 284.54 66.2696L283.54 63.2697C282.586 64.512 281.36 65.5187 279.955 66.2122C278.551 66.9057 277.006 67.2675 275.44 67.2696C268.49 67.2696 263.84 62.2697 263.84 54.7197C263.84 46.9697 268.14 41.7197 274.59 41.7197C276.098 41.7303 277.589 42.0459 278.973 42.6474C280.356 43.2488 281.603 44.1238 282.64 45.2197V32.9997C282.622 32.8617 282.634 32.7214 282.677 32.5891C282.72 32.4568 282.792 32.3357 282.888 32.235C282.984 32.1342 283.102 32.0563 283.232 32.0069C283.362 31.9575 283.501 31.938 283.64 31.9497L288.84 31.1497C289.54 31.0497 289.94 31.4997 289.94 32.1497V59.2497L291.19 65.3997C291.29 66.0697 290.94 66.3197 290.39 66.4197ZM282.74 58.0697L282.69 51.4197C281.95 50.4487 280.997 49.66 279.905 49.114C278.813 48.568 277.611 48.2792 276.39 48.2697C273.04 48.2697 270.84 50.8697 270.84 54.7697C270.84 58.6697 273.04 61.2197 276.34 61.2197C277.58 61.2365 278.806 60.9599 279.918 60.4125C281.03 59.865 281.997 59.0622 282.74 58.0697Z" fill="#009D4C"></path><path d="M313.77 44.2702L312.47 48.7702C312.428 48.9449 312.346 49.1074 312.23 49.2452C312.115 49.3831 311.97 49.4925 311.805 49.565C311.641 49.6375 311.462 49.6712 311.282 49.6635C311.103 49.6557 310.928 49.6067 310.77 49.5202C309.947 49.111 309.039 48.9053 308.12 48.9202C307.221 48.9528 306.345 49.2073 305.568 49.661C304.792 50.1146 304.14 50.7534 303.67 51.5202V65.7202C303.685 65.8311 303.676 65.944 303.641 66.0506C303.607 66.1573 303.55 66.2549 303.473 66.3364C303.396 66.4179 303.302 66.4812 303.198 66.5217C303.094 66.5621 302.982 66.5787 302.87 66.5702H296.92C296.805 66.5829 296.689 66.5697 296.58 66.5314C296.471 66.4932 296.373 66.431 296.291 66.3494C296.209 66.2678 296.147 66.1688 296.109 66.0599C296.071 65.951 296.057 65.8349 296.07 65.7202V51.0702L294.92 43.4702C294.82 42.8702 295.12 42.6202 295.67 42.5202L300.82 41.8202C301.064 41.7728 301.318 41.8183 301.53 41.9477C301.743 42.0772 301.9 42.2813 301.97 42.5202L302.82 46.5202C303.254 45.0991 304.148 43.862 305.36 43.0026C306.572 42.1431 308.035 41.7097 309.52 41.7702C310.659 41.7489 311.788 41.9883 312.82 42.4702C313.176 42.5958 313.471 42.8509 313.647 43.1844C313.823 43.518 313.867 43.9057 313.77 44.2702Z" fill="#009D4C"></path><path d="M341.16 66.3698L336.16 67.0198C335.61 67.1198 335.36 66.7698 335.16 66.2698L334.36 63.6698C333.384 64.8374 332.159 65.7714 330.774 66.4031C329.39 67.0348 327.881 67.348 326.36 67.3198C319.41 67.3198 314.76 62.3698 314.76 54.7698C314.76 46.9698 319.06 41.7698 325.51 41.7698C327.126 41.7456 328.728 42.0833 330.197 42.7581C331.666 43.4329 332.965 44.4278 334 45.6698L334.55 43.4198C334.619 43.1602 334.777 42.9332 334.996 42.7779C335.216 42.6226 335.482 42.549 335.75 42.5698H339.75C340.015 42.5698 340.27 42.6751 340.457 42.8627C340.645 43.0502 340.75 43.3045 340.75 43.5698V59.2698L341.95 65.3198C342.06 65.9998 341.71 66.3198 341.16 66.3698ZM333.16 58.9198L333.11 50.8198C332.382 50.0174 331.495 49.376 330.505 48.9369C329.514 48.4978 328.443 48.2705 327.36 48.2698C323.96 48.2698 321.71 50.8698 321.71 54.7698C321.71 58.6698 323.96 61.3198 327.31 61.3198C328.398 61.3448 329.479 61.1444 330.486 60.7314C331.493 60.3184 332.403 59.7016 333.16 58.9198V58.9198Z" fill="#009D4C"></path><path d="M370.09 43.7699L361.34 65.5199C361.219 65.8661 360.986 66.1622 360.678 66.3613C360.371 66.5605 360.005 66.6515 359.64 66.6199H354.24C353.882 66.6452 353.526 66.5575 353.221 66.3691C352.916 66.1806 352.677 65.9011 352.54 65.5699L343.74 44.1199C343.44 43.4199 343.69 42.9199 344.49 42.8199L349.79 42.2699C350.046 42.2238 350.31 42.2724 350.533 42.4068C350.755 42.5411 350.921 42.752 351 42.9999L356.85 60.4999L362.45 43.3999C362.532 43.1621 362.688 42.9565 362.895 42.8128C363.101 42.669 363.348 42.5945 363.6 42.5999H369.3C370 42.5699 370.39 43.0699 370.09 43.7699Z" fill="#009D4C"></path><path d="M372.89 65.7204V43.4204C372.877 43.3056 372.891 43.1896 372.929 43.0807C372.967 42.9718 373.029 42.8728 373.111 42.7912C373.193 42.7096 373.291 42.6474 373.4 42.6092C373.509 42.5709 373.625 42.5577 373.74 42.5704H379.69C379.804 42.5613 379.918 42.5771 380.026 42.6166C380.133 42.6562 380.23 42.7185 380.311 42.7993C380.392 42.8801 380.454 42.9775 380.494 43.0847C380.533 43.1919 380.549 43.3064 380.54 43.4204V65.7204C380.549 65.8343 380.533 65.9488 380.494 66.056C380.454 66.1633 380.392 66.2606 380.311 66.3415C380.23 66.4223 380.133 66.4846 380.026 66.5241C379.918 66.5636 379.804 66.5794 379.69 66.5704H373.74C373.625 66.5831 373.509 66.5698 373.4 66.5316C373.291 66.4933 373.193 66.4311 373.111 66.3495C373.029 66.2679 372.967 66.169 372.929 66.0601C372.891 65.9512 372.877 65.8351 372.89 65.7204V65.7204ZM384.24 32.8204L379.54 38.3704C379.355 38.5942 379.118 38.7689 378.849 38.8788C378.58 38.9888 378.289 39.0305 378 39.0004H375.15C374.15 39.0004 373.85 38.4004 374.25 37.5004L377.35 31.0504C377.463 30.7486 377.685 30.4997 377.971 30.3518C378.257 30.204 378.588 30.1678 378.9 30.2504L383.6 31.2004C384.64 31.4204 384.84 32.0704 384.24 32.8204Z" fill="#009D4C"></path><path d="M33.65 76.8098C52.2344 76.8098 67.3 61.7441 67.3 43.1598C67.3 24.5754 52.2344 9.50977 33.65 9.50977C15.0656 9.50977 0 24.5754 0 43.1598C0 61.7441 15.0656 76.8098 33.65 76.8098Z" fill="#98C93B"></path><path d="M33.09 89.25H32.93C31.7436 89.2238 30.5987 88.8083 29.6717 88.0674C28.7447 87.3265 28.087 86.3014 27.8 85.15C26.28 79.15 23.16 76.96 19.86 74.63C18.5934 73.7695 17.3842 72.8275 16.24 71.81C13.1635 69.0361 10.7681 65.5902 9.23997 61.74C6.93997 55.74 6.83997 50.35 8.94997 45.74C10.4038 42.6181 12.7131 39.9724 15.61 38.11C16.6641 37.4263 17.7596 36.8085 18.89 36.26C16.05 35.38 12.35 33.62 11.89 29.64C11.8143 28.9719 11.8515 28.2958 12 27.64C11.0105 26.9818 10.1983 26.0902 9.63497 25.0438C9.07165 23.9974 8.77458 22.8284 8.76997 21.64C8.81262 20.2127 9.32989 18.8403 10.24 17.74C9.83394 17.0274 9.57831 16.2391 9.48887 15.4239C9.39943 14.6086 9.47808 13.7837 9.71997 13C10.0334 11.9796 10.6005 11.0555 11.3682 10.3139C12.136 9.5724 13.0793 9.03774 14.11 8.76C14.2803 7.76596 14.6959 6.83013 15.3193 6.03735C15.9427 5.24457 16.7541 4.61991 17.68 4.22C18.5818 3.85339 19.5577 3.70574 20.5277 3.78918C21.4976 3.87262 22.434 4.18475 23.26 4.7C23.5832 4.5227 23.9172 4.36573 24.26 4.23L24.44 4.03C25.1011 3.37761 25.9022 2.88451 26.7824 2.58821C27.6627 2.2919 28.5989 2.20017 29.52 2.32C29.6654 2.09931 29.8258 1.88882 30 1.69C31.0618 0.626405 32.4972 0.0199272 34 0V0C35.0575 0.00816679 36.0935 0.298972 37.0008 0.842282C37.9081 1.38559 38.6535 2.16164 39.16 3.09C39.9107 3.10658 40.6537 3.24505 41.36 3.5L41.68 3.63C42.8133 3.72491 43.9123 4.06619 44.9 4.63C45.753 4.07659 46.7286 3.74072 47.7415 3.65181C48.7544 3.5629 49.7736 3.72365 50.71 4.12C51.6147 4.5205 52.4086 5.13472 53.0235 5.90987C53.6384 6.68501 54.0559 7.59787 54.24 8.57C55.3113 8.82766 56.2967 9.36097 57.0984 10.117C57.9 10.873 58.4901 11.8255 58.81 12.88C59.0381 13.6541 59.106 14.4665 59.0098 15.2677C58.9135 16.0688 58.655 16.842 58.25 17.54C59.1681 18.6302 59.696 19.9957 59.75 21.42V21.42C59.7447 22.633 59.4364 23.8255 58.8531 24.889C58.2698 25.9526 57.43 26.8535 56.41 27.51C56.5446 28.144 56.5817 28.7948 56.52 29.44C56.03 34.26 50.69 35.86 47.77 36.57C50.2693 37.8422 52.5321 39.5333 54.46 41.57C55.1884 42.3955 55.8255 43.2975 56.36 44.26C56.48 44.47 56.62 44.73 56.76 45C56.9 45.27 56.94 45.36 57.04 45.57C59.16 50.2 59.04 55.57 56.79 61.57C55.2677 65.4262 52.8716 68.8767 49.79 71.65C48.7229 72.6212 47.5975 73.5262 46.42 74.36C43.22 76.71 40.21 78.92 38.18 85.36C37.8985 86.3167 37.3599 87.1779 36.6229 87.8497C35.8858 88.5215 34.9786 88.9782 34 89.17C33.6998 89.2249 33.3951 89.2517 33.09 89.25ZM33.8 39.56L28.71 40.39C25.4183 40.9123 22.2715 42.1145 19.47 43.92C17.683 45.0547 16.2517 46.6696 15.34 48.58C14.04 51.47 14.19 55.05 15.8 59.24C16.9439 62.0866 18.7224 64.6347 21 66.69C21.9161 67.4895 22.8813 68.2309 23.89 68.91C26.89 71 30.69 73.73 33.17 79.33C35.86 73.63 39.42 71.01 42.39 68.83C43.3448 68.157 44.2596 67.4291 45.13 66.65C47.4122 64.5969 49.1885 62.0437 50.32 59.19C51.92 54.99 52.07 51.41 50.76 48.54L50.61 48.25L50.36 47.79C50.0456 47.2264 49.6736 46.6969 49.25 46.21C47.25 43.93 43.32 42.09 41.95 41.57C40.9335 41.207 39.8946 40.9097 38.84 40.68L33.8 39.56ZM19.28 28.83C20.3867 29.3634 21.5558 29.7565 22.76 30C23.66 30.22 28.09 31.44 30.82 34.67L34.17 38.67L36.83 35.18C39.64 31.51 44.83 30.18 45.58 29.98C46.8312 29.7394 48.0473 29.343 49.2 28.8L45 25.37L50.24 23C51.0712 22.6642 51.8546 22.2204 52.57 21.68C52.3239 21.5155 52.0627 21.3749 51.79 21.26L46.56 18.89L51.06 15.32L51.4 15.04L50.84 15L47.5 14.75L47.6 11.39L47.53 11.46L45.24 13.7L42.81 11.62C42.3801 11.2058 41.8831 10.8677 41.34 10.62L39.83 10.9L38.83 10.07C38.5972 10.102 38.3668 10.1488 38.14 10.21L34.93 11.14L34.06 8.6L33.18 10.89L29.88 9.54C29.6969 9.46375 29.51 9.397 29.32 9.34L28.8 10.43L26.88 10.67C26.3672 10.8969 25.9022 11.2193 25.51 11.62L23.05 13.79L20.85 11.6L21 14.82L17.69 15.11L17.19 15.16L17.57 15.48L21.86 19L16.81 21.36C16.5351 21.4888 16.2709 21.6393 16.02 21.81C16.7132 22.3457 17.4728 22.7894 18.28 23.13L23.34 25.42L19.28 28.83Z" fill="white"></path><path d="M56.34 21.5696C56.29 20.1796 55.25 19.0196 53.24 18.1096C54.79 16.8796 56 15.4296 55.54 13.8696C55.14 12.4896 53.68 11.7296 51.1 11.5396C51.16 9.76965 50.88 7.98965 49.4 7.34965C48.17 6.80965 46.72 7.34965 45.08 8.97965C43.5 7.62965 42.21 7.02965 41.08 7.13965C40.7882 7.164 40.5034 7.24197 40.24 7.36965C39.2554 7.0885 38.2082 7.11642 37.24 7.44965C36.63 5.66965 35.76 4.13965 34.24 4.13965C33.9428 4.14029 33.6489 4.20083 33.3757 4.31767C33.1025 4.43451 32.8557 4.60524 32.65 4.81965C32.0955 5.41287 31.6759 6.11902 31.42 6.88965C29.96 6.28965 28.3 5.95965 27.19 7.03965C25.6921 9.58941 24.7117 12.4095 24.3051 15.3386C23.8984 18.2677 24.0734 21.2483 24.82 24.1096C26.3596 29.6594 29.9716 34.4061 34.91 37.3696L39.44 37.4897C41.54 34.4897 46.31 33.3596 46.37 33.3496C50.85 32.3496 52.94 31.0096 53.13 29.1096C53.1568 28.5446 53.0353 27.9823 52.7774 27.4788C52.5195 26.9753 52.1342 26.5481 51.66 26.2396C54.94 24.7896 56.4 23.3096 56.34 21.5696Z" fill="#98C93B"></path><path d="M34.91 37.3703L28.36 37.1903C26.26 34.4303 22.01 33.4203 21.96 33.4103C17.63 32.4103 15.61 31.1003 15.41 29.2103C15.3773 28.646 15.492 28.0828 15.7427 27.5761C15.9934 27.0695 16.3715 26.6367 16.84 26.3203C13.67 24.8803 12.25 23.4103 12.31 21.6803C12.31 20.2903 13.31 19.1203 15.31 18.2003C13.79 17.0003 12.62 15.5003 13.08 14.0003C13.48 12.6603 14.91 11.8803 17.35 11.6703C17.29 9.88031 17.57 8.08031 19.05 7.45031C20.24 6.95031 21.63 7.45031 23.2 9.05031C24.68 7.69031 25.9 7.10031 27 7.18031L27.09 7.07031C26.3857 12.5925 26.7764 18.1993 28.24 23.5703C29.6161 28.5337 31.8755 33.2085 34.91 37.3703V37.3703Z" fill="#009D4C"></path><path d="M26.5 53.6895C26.1128 53.6895 25.7414 53.5357 25.4676 53.2619C25.1938 52.9881 25.04 52.6167 25.04 52.2295C25.04 51.8423 25.1938 51.471 25.4676 51.1972C25.7414 50.9234 26.1128 50.7695 26.5 50.7695H33.57C33.9572 50.7695 34.3285 50.9234 34.6024 51.1972C34.8762 51.471 35.03 51.8423 35.03 52.2295C35.03 52.6167 34.8762 52.9881 34.6024 53.2619C34.3285 53.5357 33.9572 53.6895 33.57 53.6895H26.5ZM42.12 65.9995H33.58C33.3788 66.0162 33.1763 65.991 32.9853 65.9255C32.7943 65.8599 32.619 65.7555 32.4705 65.6187C32.3219 65.482 32.2033 65.3159 32.1222 65.131C32.0411 64.9461 31.9993 64.7464 31.9993 64.5445C31.9993 64.3426 32.0411 64.1429 32.1222 63.958C32.2033 63.7731 32.3219 63.6071 32.4705 63.4703C32.619 63.3336 32.7943 63.2291 32.9853 63.1636C33.1763 63.0981 33.3788 63.0728 33.58 63.0895H42.11C42.4972 63.0895 42.8685 63.2434 43.1424 63.5172C43.4162 63.791 43.57 64.1623 43.57 64.5495C43.57 64.9367 43.4162 65.3081 43.1424 65.5819C42.8685 65.8557 42.4972 66.0095 42.11 66.0095L42.12 65.9995Z" fill="#8E8E8E"></path><path d="M33.43 85.71C33.3169 85.7196 33.2031 85.7196 33.09 85.71H33C32.5767 85.7025 32.1677 85.5552 31.8367 85.2912C31.5058 85.0271 31.2714 84.6611 31.17 84.25C29.33 77.03 25.36 74.25 21.85 71.73C20.7101 70.9612 19.6212 70.1194 18.59 69.21C15.9176 66.7934 13.8344 63.7968 12.5 60.45C10.5 55.35 10.42 50.86 12.12 47.1C13.3325 44.5952 15.2244 42.4816 17.58 41C17.3047 42.8504 17.251 44.7269 17.42 46.59C17.78 50.41 19.04 53.71 22.64 59.9C27.45 68.16 28.64 68.26 30.64 72.6C32.4463 76.7366 33.3954 81.1964 33.43 85.71Z" fill="#DD3E68"></path><path d="M43.17 38.2901C43.17 38.2901 48.88 40.4201 51.91 43.9201C52.4727 44.5613 52.9686 45.2582 53.39 46.0001C53.51 46.2001 53.62 46.4001 53.72 46.6001C53.8 46.7501 53.88 46.9001 53.95 47.0601C55.66 50.8101 55.55 55.3001 53.61 60.4101C52.2829 63.7582 50.2024 66.7557 47.53 69.1701C46.5599 70.0503 45.5381 70.8717 44.47 71.6301C41.13 74.0801 37.35 76.8601 34.97 84.3401C34.8653 84.6856 34.6652 84.9947 34.3928 85.2317C34.1204 85.4687 33.7867 85.6241 33.43 85.6801C33.2785 81.0644 32.136 76.5353 30.08 72.4001C27.4 67.2001 25.07 66.5601 21 59.0001C18.35 54.1001 17.63 51.2201 17.33 48.9301C16.9757 46.291 17.0602 43.6116 17.58 41.0001C19.2554 39.9209 21.0424 39.0258 22.91 38.3301C24.6478 37.6822 26.4471 37.2131 28.28 36.9301C31.9337 36.3552 35.6617 36.4535 39.28 37.2201C40.5998 37.4866 41.8995 37.8441 43.17 38.2901V38.2901Z" fill="#EF3F65"></path><path d="M43.58 64.55C43.5774 64.9354 43.4224 65.3042 43.1489 65.5759C42.8753 65.8475 42.5055 66 42.12 66H33.58C33.3788 66.0167 33.1763 65.9914 32.9853 65.9259C32.7943 65.8604 32.619 65.7559 32.4705 65.6192C32.3219 65.4824 32.2034 65.3164 32.1223 65.1315C32.0411 64.9466 31.9993 64.7469 31.9993 64.545C31.9993 64.3431 32.0411 64.1433 32.1223 63.9584C32.2034 63.7736 32.3219 63.6075 32.4705 63.4707C32.619 63.334 32.7943 63.2296 32.9853 63.164C33.1763 63.0985 33.3788 63.0733 33.58 63.09H42.11C42.3026 63.0886 42.4935 63.1254 42.6718 63.1982C42.8501 63.271 43.0122 63.3783 43.1488 63.514C43.2855 63.6497 43.3939 63.8111 43.4679 63.9889C43.5419 64.1667 43.58 64.3574 43.58 64.55V64.55Z" fill="#DD3E68"></path><path d="M35 52.2198C34.9974 52.6062 34.8427 52.976 34.5695 53.2492C34.2962 53.5225 33.9264 53.6771 33.54 53.6798H26.5C26.1128 53.6798 25.7414 53.5259 25.4676 53.2521C25.1938 52.9783 25.04 52.607 25.04 52.2198C25.04 51.8326 25.1938 51.4612 25.4676 51.1874C25.7414 50.9136 26.1128 50.7598 26.5 50.7598H33.57C33.952 50.7676 34.3157 50.9249 34.583 51.1979C34.8504 51.4708 35.0001 51.8377 35 52.2198V52.2198Z" fill="#DD3E68"></path><path d="M53.7199 46.6299C53.4955 46.771 53.235 46.844 52.9699 46.8399H45.8999C45.5127 46.8399 45.1414 46.6861 44.8676 46.4123C44.5938 46.1385 44.4399 45.7671 44.4399 45.3799C44.4399 44.9927 44.5938 44.6214 44.8676 44.3475C45.1414 44.0737 45.5127 43.9199 45.8999 43.9199H51.8999C52.4662 44.5607 52.9654 45.2576 53.3899 45.9999C53.5099 46.2199 53.6199 46.4299 53.7199 46.6299Z" fill="#DD3E68"></path></svg>