<svg xmlns="http://www.w3.org/2000/svg" width="384.57" height="89.25" viewBox="0 0 384.57 89.25"><defs><style>.cls-1{fill:#009d4c;}.cls-2{fill:#98c93b;}.cls-3{fill:#fcedd4;}.cls-4{fill:#fff;}.cls-5{fill:none;}.cls-6{fill:#8e8e8e;}.cls-7{fill:#dd3e68;}.cls-8{fill:#ef3f65;}</style></defs><title>Logo8</title><g id="Layer_2" data-name="Layer 2"><g id="Layer_1-2" data-name="Layer 1"><path class="cls-1" d="M109.6,64.77c-2.85,1.85-6.85,2.55-11,2.55-10.1,0-16.8-6.7-16.8-16.75,0-10.35,6.8-17.25,17-17.25,4,0,7.75.85,10.25,2.4a1.15,1.15,0,0,1,.7,1.35l-1.45,4.1c-.3.8-.9,1-1.5.75a20.43,20.43,0,0,0-8-1.8c-5.6,0-9.35,4.2-9.35,10.45,0,6,3.65,10,9.15,10a17.13,17.13,0,0,0,8.55-1.8c.8-.35,1.45-.15,1.65.5l1.3,3.85A1.46,1.46,0,0,1,109.6,64.77ZM90.65,25.62c-.6-.8-.4-1.15.55-1.6l2.8-1.3c.7-.35,1.15.2,1.55.75l3.1,4.1,3-4.1c.4-.55.9-1.1,1.6-.75L106,24c1,.4,1.2.8.6,1.6l-4.2,4.9a2,2,0,0,1-1.55.7h-4.5a2,2,0,0,1-1.5-.7Z"/><path class="cls-1" d="M138.78,66.37l-4.95.65c-.55.1-.8-.25-1-.75l-.8-2.6a10.18,10.18,0,0,1-8,3.65c-7,0-11.61-4.95-11.61-12.55,0-7.8,4.3-13,10.76-13a10.84,10.84,0,0,1,8.35,3.85l.55-2.25a1.15,1.15,0,0,1,1.2-.85h3.95a1,1,0,0,1,1.05,1v15.7l1.2,6.05C139.68,66,139.33,66.32,138.78,66.37Zm-8-7.45-.05-8.1A7.77,7.77,0,0,0,125,48.27c-3.4,0-5.66,2.6-5.66,6.5s2.26,6.55,5.61,6.55A7.89,7.89,0,0,0,130.78,58.92Z"/><path class="cls-1" d="M152.12,67.32a23,23,0,0,1-8.06-1.45c-.55-.25-.65-.8-.7-1.35l-.2-3.7c0-.8.75-1,1.5-.75a20.86,20.86,0,0,0,7.46,1.65c3.15,0,4.85-.75,4.85-2.15,0-4.25-13.71,0-13.71-10.4,0-4.45,3.7-7.35,10.51-7.35a22.21,22.21,0,0,1,8.35,1.55,1.13,1.13,0,0,1,.7,1.35l-.95,3.3a1.11,1.11,0,0,1-1.5.8,18,18,0,0,0-6.6-1.3c-2.31,0-3.51.8-3.51,2,0,4.35,13.61.45,13.71,10.15C164,64.27,159.37,67.32,152.12,67.32Z"/><path class="cls-2" d="M199.35,34.92V65.47a1,1,0,0,1-1,1.1H193.5a2.17,2.17,0,0,1-2.05-.8L176.3,45.12v20.6a.77.77,0,0,1-.85.85H170a.77.77,0,0,1-.85-.85V35.52a1,1,0,0,1,1-1.1l4.3-.55a2.14,2.14,0,0,1,2.15.8l15.65,22V34.92a.77.77,0,0,1,.85-.85h5.5A.74.74,0,0,1,199.35,34.92Z"/><path class="cls-2" d="M231.05,66.37l-5,.65c-.55.1-.8-.25-1-.75l-.8-2.6a10.18,10.18,0,0,1-8,3.65c-6.95,0-11.6-4.95-11.6-12.55,0-7.8,4.3-13,10.75-13a10.84,10.84,0,0,1,8.35,3.85l.55-2.25a1.15,1.15,0,0,1,1.2-.85h4a1,1,0,0,1,1,1v15.7l1.2,6.05C232,66,231.6,66.32,231.05,66.37Zm-8-7.45-.05-8.1a7.77,7.77,0,0,0-5.75-2.55c-3.4,0-5.65,2.6-5.65,6.5s2.25,6.55,5.6,6.55A7.89,7.89,0,0,0,223.05,58.92Z"/><path class="cls-1" d="M261.47,61.32v4.2a1,1,0,0,1-1.05,1H237.27a1.9,1.9,0,0,1-1.7-3l14.55-23.2H237.07a.93.93,0,0,1-1-1v-4.2a1,1,0,0,1,1-1h21.15a1.93,1.93,0,0,1,1.7,3.1L245.27,60.32h15.15A.93.93,0,0,1,261.47,61.32Z"/><path class="cls-1" d="M290.39,66.42l-4.9.6c-.55,0-.8-.25-.95-.75l-1-3a10.23,10.23,0,0,1-8.1,4c-6.95,0-11.6-5-11.6-12.55,0-7.75,4.3-13,10.75-13a11.19,11.19,0,0,1,8.05,3.5L282.64,33a.93.93,0,0,1,1-1.05l5.2-.8c.7-.1,1.1.35,1.1,1v27.1l1.25,6.15C291.29,66.07,290.94,66.32,290.39,66.42Zm-7.65-8.35-.05-6.65a8,8,0,0,0-6.3-3.15c-3.35,0-5.55,2.6-5.55,6.5s2.2,6.45,5.5,6.45A7.86,7.86,0,0,0,282.74,58.07Z"/><path class="cls-1" d="M313.77,44.27l-1.3,4.5a1.17,1.17,0,0,1-1.7.75,5.74,5.74,0,0,0-2.65-.6,5.45,5.45,0,0,0-4.45,2.6v14.2a.75.75,0,0,1-.8.85h-5.95a.77.77,0,0,1-.85-.85V51.07l-1.15-7.6c-.1-.6.2-.85.75-.95l5.15-.7a1,1,0,0,1,1.15.7l.85,4a6.72,6.72,0,0,1,6.7-4.75,7.47,7.47,0,0,1,3.3.7A1.5,1.5,0,0,1,313.77,44.27Z"/><path class="cls-1" d="M341.16,66.37l-5,.65c-.55.1-.8-.25-1-.75l-.8-2.6a10.18,10.18,0,0,1-8,3.65c-6.95,0-11.6-4.95-11.6-12.55,0-7.8,4.3-13,10.75-13A10.84,10.84,0,0,1,334,45.67l.55-2.25a1.15,1.15,0,0,1,1.2-.85h4a1,1,0,0,1,1,1v15.7l1.2,6.05C342.06,66,341.71,66.32,341.16,66.37Zm-8-7.45-.05-8.1a7.77,7.77,0,0,0-5.75-2.55c-3.4,0-5.65,2.6-5.65,6.5s2.25,6.55,5.6,6.55A7.89,7.89,0,0,0,333.16,58.92Z"/><path class="cls-1" d="M370.09,43.77l-8.75,21.75a1.65,1.65,0,0,1-1.7,1.1h-5.4a1.71,1.71,0,0,1-1.7-1.05l-8.8-21.45c-.3-.7-.05-1.2.75-1.3l5.3-.55A1.07,1.07,0,0,1,351,43l5.85,17.5,5.6-17.1a1.19,1.19,0,0,1,1.15-.8l5.7,0C370,42.57,370.39,43.07,370.09,43.77Z"/><path class="cls-1" d="M372.89,65.72V43.42a.77.77,0,0,1,.85-.85h5.95a.79.79,0,0,1,.85.85v22.3a.79.79,0,0,1-.85.85h-5.95A.77.77,0,0,1,372.89,65.72Zm11.35-32.9-4.7,5.55A1.76,1.76,0,0,1,378,39h-2.85c-1,0-1.3-.6-.9-1.5l3.1-6.45a1.3,1.3,0,0,1,1.55-.8l4.7.95C384.64,31.42,384.84,32.07,384.24,32.82Z"/><circle class="cls-3" cx="33.65" cy="43.16" r="33.65"/><path class="cls-4" d="M33.09,89.25h-.16a5.41,5.41,0,0,1-5.13-4.1c-1.52-6-4.64-8.19-7.94-10.52a35.29,35.29,0,0,1-3.62-2.82,26.94,26.94,0,0,1-7-10.07c-2.3-6-2.4-11.39-.29-16a18.21,18.21,0,0,1,6.66-7.63,30.48,30.48,0,0,1,3.28-1.85c-2.84-.88-6.54-2.64-7-6.62a6,6,0,0,1,.11-2,7.24,7.24,0,0,1-3.23-6,6.42,6.42,0,0,1,1.47-3.9A6,6,0,0,1,9.72,13a6.31,6.31,0,0,1,4.39-4.24,6.06,6.06,0,0,1,3.57-4.54,6.16,6.16,0,0,1,5.58.48,8.87,8.87,0,0,1,1-.47l.18-.2a6.11,6.11,0,0,1,5.08-1.71A5.8,5.8,0,0,1,30,1.69a5.76,5.76,0,0,1,4-1.69h0a5.93,5.93,0,0,1,5.16,3.09,6.93,6.93,0,0,1,2.2.41l.32.13a7.81,7.81,0,0,1,3.22,1,6.22,6.22,0,0,1,5.81-.51,6.11,6.11,0,0,1,3.53,4.45,6.32,6.32,0,0,1,4.57,4.31,5.94,5.94,0,0,1-.56,4.66,6.4,6.4,0,0,1,1.5,3.88h0a7.28,7.28,0,0,1-3.34,6.09,6.37,6.37,0,0,1,.11,1.93c-.49,4.82-5.83,6.42-8.75,7.13a24.54,24.54,0,0,1,6.69,5,15.27,15.27,0,0,1,1.9,2.69c.12.21.26.47.4.74s.18.36.28.57c2.12,4.63,2,10-.25,16a26.8,26.8,0,0,1-7,10.08,35.4,35.4,0,0,1-3.37,2.71c-3.2,2.35-6.21,4.56-8.24,11A5.45,5.45,0,0,1,34,89.17,4.91,4.91,0,0,1,33.09,89.25Zm1.5-5.83h0ZM33.8,39.56l-5.09.83a24,24,0,0,0-9.24,3.53,11.27,11.27,0,0,0-4.13,4.66c-1.3,2.89-1.15,6.47.46,10.66A20.16,20.16,0,0,0,21,66.69a29.18,29.18,0,0,0,2.89,2.22c3,2.09,6.8,4.82,9.28,10.42,2.69-5.7,6.25-8.32,9.22-10.5a30.15,30.15,0,0,0,2.74-2.18,19.9,19.9,0,0,0,5.19-7.46c1.6-4.2,1.75-7.78.44-10.65l-.15-.29-.25-.46a9.33,9.33,0,0,0-1.11-1.58c-2-2.28-5.93-4.12-7.3-4.64a25.17,25.17,0,0,0-3.11-.89ZM19.28,28.83A14.75,14.75,0,0,0,22.76,30c.9.22,5.33,1.44,8.06,4.67l3.35,4,2.66-3.49c2.81-3.67,8-5,8.75-5.2h0a15.25,15.25,0,0,0,3.62-1.18L45,25.37,50.24,23a10.21,10.21,0,0,0,2.33-1.32,4.66,4.66,0,0,0-.78-.42l-5.23-2.37,4.5-3.57.34-.28L50.84,15l-3.34-.25.1-3.36v0l-.07.07-2.29,2.24-2.43-2.08a5.27,5.27,0,0,0-1.47-1l-1.51.28-1-.83a5.54,5.54,0,0,0-.69.14l-3.21.93-.87-2.54-.88,2.29L29.88,9.54a5.77,5.77,0,0,0-.56-.2l-.52,1.09-1.92.24h0a4.42,4.42,0,0,0-1.37.95l-2.46,2.17-2.2-2.19L21,14.82l-3.31.29-.5.05.38.32L21.86,19l-5.05,2.36a5.72,5.72,0,0,0-.79.45,10.15,10.15,0,0,0,2.26,1.32l5.06,2.29ZM41.65,10.58h0Z"/><path class="cls-2" d="M56.34,21.57c-.05-1.39-1.09-2.55-3.1-3.46,1.55-1.23,2.76-2.68,2.3-4.24-.4-1.38-1.86-2.14-4.44-2.33.06-1.77-.22-3.55-1.7-4.19-1.23-.54-2.68,0-4.32,1.63-1.58-1.35-2.87-1.95-4-1.84a2.38,2.38,0,0,0-.84.23,5,5,0,0,0-3,.08c-.61-1.78-1.48-3.31-3-3.31a2.21,2.21,0,0,0-1.59.68,5.63,5.63,0,0,0-1.23,2.07c-1.46-.6-3.12-.93-4.23.15,0,0,0,0,0,0a22.49,22.49,0,0,0-2.37,17.07A22.47,22.47,0,0,0,34.91,37.37l4.53.12c2.1-3,6.87-4.13,6.93-4.14,4.48-1,6.57-2.34,6.76-4.24a3.24,3.24,0,0,0-1.47-2.87C54.94,24.79,56.4,23.31,56.34,21.57Z"/><path class="cls-1" d="M34.91,37.37l-6.55-.18c-2.1-2.76-6.35-3.77-6.4-3.78-4.33-1-6.35-2.31-6.55-4.2a3.26,3.26,0,0,1,1.43-2.89c-3.17-1.44-4.59-2.91-4.53-4.64,0-1.39,1-2.56,3-3.48C13.79,17,12.62,15.5,13.08,14c.4-1.34,1.83-2.12,4.27-2.33-.06-1.79.22-3.59,1.7-4.22,1.19-.5,2.58,0,4.15,1.6C24.68,7.69,25.9,7.1,27,7.18l.09-.11a42.37,42.37,0,0,0,1.15,16.5A42.86,42.86,0,0,0,34.91,37.37Z"/><path class="cls-5" d="M39.36,37.49l-2.53-.07m-6.77-.19-1.78,0"/><path class="cls-6" d="M26.5,53.69a1.46,1.46,0,1,1,0-2.92h7.07a1.46,1.46,0,1,1,0,2.92ZM42.12,66H33.58a1.46,1.46,0,1,1,0-2.91l8.53,0a1.46,1.46,0,1,1,0,2.92Z"/><path class="cls-7" d="M33.43,85.71a2,2,0,0,1-.34,0H33a1.92,1.92,0,0,1-1.83-1.46c-1.84-7.22-5.81-10-9.32-12.52a31.87,31.87,0,0,1-3.26-2.52,23.59,23.59,0,0,1-6.09-8.76c-2-5.1-2.08-9.59-.38-13.35A14.85,14.85,0,0,1,17.58,41a23.54,23.54,0,0,0-.16,5.59c.36,3.82,1.62,7.12,5.22,13.31,4.81,8.26,6,8.36,8,12.7A33.4,33.4,0,0,1,33.43,85.71Z"/><path class="cls-8" d="M43.17,38.29s5.71,2.13,8.74,5.63A12.55,12.55,0,0,1,53.39,46q.18.3.33.6c.08.15.16.3.23.46,1.71,3.75,1.6,8.24-.34,13.35a23.45,23.45,0,0,1-6.08,8.76,32.89,32.89,0,0,1-3.06,2.46c-3.34,2.45-7.12,5.23-9.5,12.71a1.92,1.92,0,0,1-1.54,1.34,32.2,32.2,0,0,0-3.35-13.28C27.4,67.2,25.07,66.56,21,59c-2.65-4.9-3.37-7.78-3.67-10.07A24.16,24.16,0,0,1,17.58,41a27.7,27.7,0,0,1,5.33-2.67,27.29,27.29,0,0,1,5.37-1.4,30.33,30.33,0,0,1,11,.29A29.18,29.18,0,0,1,43.17,38.29Z"/><path class="cls-7" d="M43.58,64.55A1.46,1.46,0,0,1,42.12,66H33.58a1.46,1.46,0,1,1,0-2.91l8.53,0A1.46,1.46,0,0,1,43.58,64.55Z"/><path class="cls-7" d="M35,52.22a1.47,1.47,0,0,1-1.46,1.46H26.5a1.46,1.46,0,1,1,0-2.92h7.07A1.46,1.46,0,0,1,35,52.22Z"/><path class="cls-7" d="M53.72,46.63a1.37,1.37,0,0,1-.75.21H45.9a1.46,1.46,0,1,1,0-2.92h6A12.55,12.55,0,0,1,53.39,46Q53.57,46.33,53.72,46.63Z"/></g></g></svg>