<svg xmlns="http://www.w3.org/2000/svg" width="855" height="128" viewBox="0 0 855 128" fill="none"><path d="M129.1 21.8C125.7 22 123.25 22.4 121.75 23C120.25 23.6 119.2 24.75 118.6 26.45C118.1 28.15 117.85 30.9 117.85 34.7V109.1C117.85 112.9 118.1 115.65 118.6 117.35C119.2 119.05 120.25 120.2 121.75 120.8C123.35 121.4 125.8 121.8 129.1 122V125C123.6 124.7 115.75 124.55 105.55 124.55C94.85 124.55 86.95 124.7 81.85 125V122C85.45 121.8 88.05 121.4 89.65 120.8C91.35 120.2 92.5 119.05 93.1 117.35C93.7 115.65 94 112.9 94 109.1V30.65L57.85 125.15H55.45L14.95 28.55V100.4C14.95 106.3 15.25 110.65 15.85 113.45C16.45 116.15 17.75 118.15 19.75 119.45C21.75 120.65 25 121.5 29.5 122V125C25.6 124.7 20.2 124.55 13.3 124.55C7.8 124.55 3.45 124.7 0.25 125V122C3.55 121.5 5.95 120.65 7.45 119.45C9.05 118.25 10.1 116.35 10.6 113.75C11.2 111.15 11.5 107.3 11.5 102.2V34.7C11.5 30.9 11.2 28.15 10.6 26.45C10.1 24.75 9.05 23.6 7.45 23C5.95 22.4 3.55 22 0.25 21.8V18.8C3.45 19.1 7.8 19.25 13.3 19.25C22.5 19.25 30.4 19.1 37 18.8L67.3 91.85L94.9 19.25H105.55C115.75 19.25 123.6 19.1 129.1 18.8V21.8ZM168.214 111.05C168.214 115.15 168.914 118 170.314 119.6C171.714 121.1 174.214 121.85 177.814 121.85V125C167.414 124.6 160.714 124.4 157.714 124.4C154.314 124.4 147.414 124.6 137.014 125V121.85C140.514 121.85 142.964 121.1 144.364 119.6C145.864 118 146.614 115.15 146.614 111.05V25.55C146.614 20.95 145.864 17.6 144.364 15.5C142.964 13.4 140.514 12.35 137.014 12.35V9.2C140.214 9.49999 143.314 9.64999 146.314 9.64999C155.014 9.64999 162.314 8.94999 168.214 7.54999V111.05ZM203.996 126.05C197.596 126.05 192.796 124.4 189.596 121.1C186.496 117.8 184.946 113.45 184.946 108.05C184.946 103.55 186.096 99.85 188.396 96.95C190.796 93.95 193.646 91.65 196.946 90.05C200.346 88.45 204.646 86.75 209.846 84.95C215.346 83.05 219.346 81.35 221.846 79.85C224.446 78.25 225.746 76.1 225.746 73.4V61.7C225.746 57.5 224.746 54.25 222.746 51.95C220.846 49.55 217.846 48.35 213.746 48.35C208.946 48.35 205.296 49.55 202.796 51.95C205.596 52.95 207.746 54.45 209.246 56.45C210.846 58.45 211.646 60.8 211.646 63.5C211.646 66.9 210.496 69.6 208.196 71.6C205.896 73.6 203.096 74.6 199.796 74.6C196.296 74.6 193.596 73.5 191.696 71.3C189.796 69.1 188.846 66.35 188.846 63.05C188.846 60.25 189.496 57.9 190.796 56C192.196 54 194.296 52.15 197.096 50.45C199.796 48.85 203.096 47.6 206.996 46.7C210.996 45.8 215.346 45.35 220.046 45.35C224.946 45.35 229.196 45.85 232.796 46.85C236.396 47.85 239.396 49.55 241.796 51.95C243.996 54.15 245.446 56.85 246.146 60.05C246.946 63.25 247.346 67.6 247.346 73.1V113.9C247.346 116.3 247.546 118 247.946 119C248.446 120 249.346 120.5 250.646 120.5C252.146 120.5 253.946 119.65 256.046 117.95L257.546 120.5C253.046 124.2 247.546 126.05 241.046 126.05C235.546 126.05 231.696 124.95 229.496 122.75C227.296 120.55 226.146 117.6 226.046 113.9C221.046 122 213.696 126.05 203.996 126.05ZM215.546 116.45C219.446 116.45 222.846 114.4 225.746 110.3V79.55C224.546 81.55 221.996 83.75 218.096 86.15C214.196 88.65 211.246 91.15 209.246 93.65C207.246 96.15 206.246 99.75 206.246 104.45C206.246 108.55 207.096 111.6 208.796 113.6C210.496 115.5 212.746 116.45 215.546 116.45ZM335.632 108.5C335.632 113.1 336.332 116.45 337.732 118.55C339.132 120.65 341.632 121.7 345.232 121.7V124.85C342.132 124.55 339.032 124.4 335.932 124.4C327.032 124.4 319.732 125.1 314.032 126.5V113.6C310.632 122.6 304.132 127.1 294.532 127.1C285.132 127.1 277.632 123.7 272.032 116.9C266.532 110 263.832 99.65 263.932 85.85C263.932 77.05 265.332 69.65 268.132 63.65C271.032 57.55 274.982 53 279.982 50C285.082 46.9 290.882 45.35 297.382 45.35C304.682 45.35 310.232 47.25 314.032 51.05V25.55C314.032 20.95 313.282 17.6 311.782 15.5C310.382 13.4 307.932 12.35 304.432 12.35V9.2C307.632 9.49999 310.732 9.64999 313.732 9.64999C322.432 9.64999 329.732 8.94999 335.632 7.54999V108.5ZM300.682 120.65C303.982 120.65 306.882 119.45 309.382 117.05C311.982 114.65 313.532 111.4 314.032 107.3V54.8C311.532 51.4 307.882 49.7 303.082 49.7C297.782 49.7 293.682 52.75 290.782 58.85C287.882 64.95 286.482 74.05 286.582 86.15C286.482 98.35 287.632 107.15 290.032 112.55C292.532 117.95 296.082 120.65 300.682 120.65ZM371.281 126.05C364.881 126.05 360.081 124.4 356.881 121.1C353.781 117.8 352.231 113.45 352.231 108.05C352.231 103.55 353.381 99.85 355.681 96.95C358.081 93.95 360.931 91.65 364.231 90.05C367.631 88.45 371.931 86.75 377.131 84.95C382.631 83.05 386.631 81.35 389.131 79.85C391.731 78.25 393.031 76.1 393.031 73.4V61.7C393.031 57.5 392.031 54.25 390.031 51.95C388.131 49.55 385.131 48.35 381.031 48.35C376.231 48.35 372.581 49.55 370.081 51.95C372.881 52.95 375.031 54.45 376.531 56.45C378.131 58.45 378.931 60.8 378.931 63.5C378.931 66.9 377.781 69.6 375.481 71.6C373.181 73.6 370.381 74.6 367.081 74.6C363.581 74.6 360.881 73.5 358.981 71.3C357.081 69.1 356.131 66.35 356.131 63.05C356.131 60.25 356.781 57.9 358.081 56C359.481 54 361.581 52.15 364.381 50.45C367.081 48.85 370.381 47.6 374.281 46.7C378.281 45.8 382.631 45.35 387.331 45.35C392.231 45.35 396.481 45.85 400.081 46.85C403.681 47.85 406.681 49.55 409.081 51.95C411.281 54.15 412.731 56.85 413.431 60.05C414.231 63.25 414.631 67.6 414.631 73.1V113.9C414.631 116.3 414.831 118 415.231 119C415.731 120 416.631 120.5 417.931 120.5C419.431 120.5 421.231 119.65 423.331 117.95L424.831 120.5C420.331 124.2 414.831 126.05 408.331 126.05C402.831 126.05 398.981 124.95 396.781 122.75C394.581 120.55 393.431 117.6 393.331 113.9C388.331 122 380.981 126.05 371.281 126.05ZM382.831 116.45C386.731 116.45 390.131 114.4 393.031 110.3V79.55C391.831 81.55 389.281 83.75 385.381 86.15C381.481 88.65 378.531 91.15 376.531 93.65C374.531 96.15 373.531 99.75 373.531 104.45C373.531 108.55 374.381 111.6 376.081 113.6C377.781 115.5 380.031 116.45 382.831 116.45ZM403.231 2.45C405.031 3.75 405.931 5.65 405.931 8.14999C405.931 10.25 405.181 12.3 403.681 14.3C402.581 15.6 401.181 16.95 399.481 18.35C397.881 19.65 396.131 21 394.231 22.4C388.231 26.6 382.931 30.85 378.331 35.15L376.681 33.8C379.381 28.9 382.181 22.75 385.081 15.35C386.381 12.25 387.381 9.95 388.081 8.45C388.881 6.85 389.831 5.39999 390.931 4.09999C392.831 1.69999 395.181 0.499994 397.981 0.499994C400.081 0.499994 401.831 1.14999 403.231 2.45ZM749.543 113.6C751.277 113.6 752.777 114.233 754.043 115.5C755.31 116.767 755.943 118.267 755.943 120C755.943 121.733 755.31 123.233 754.043 124.5C752.777 125.767 751.277 126.4 749.543 126.4C747.81 126.4 746.31 125.767 745.043 124.5C743.777 123.233 743.143 121.733 743.143 120C743.143 118.267 743.777 116.767 745.043 115.5C746.31 114.233 747.81 113.6 749.543 113.6ZM790.039 72.1C794.505 72.1 798.372 73.1667 801.639 75.3C804.772 77.3667 806.339 79.9333 806.339 83C806.339 84.7333 805.839 86.1 804.839 87.1C803.839 88.1 802.572 88.6 801.039 88.6C799.505 88.6 798.205 88.1667 797.139 87.3C796.072 86.3667 795.539 85.1333 795.539 83.6C795.539 82.2 795.939 81.0333 796.739 80.1C797.539 79.1 798.539 78.4333 799.739 78.1C799.072 76.9 797.872 75.9 796.139 75.1C794.472 74.3 792.672 73.9 790.739 73.9C788.272 73.9 785.972 74.7 783.839 76.3C781.705 77.8333 779.939 80.4333 778.539 84.1C777.139 87.7 776.439 92.4667 776.439 98.4C776.439 106.667 777.772 112.7 780.439 116.5C783.105 120.233 786.572 122.1 790.839 122.1C793.705 122.1 796.405 121.267 798.939 119.6C801.539 117.933 803.672 115.333 805.339 111.8L807.239 112.5C806.105 116.3 803.972 119.567 800.839 122.3C797.772 125.033 793.772 126.4 788.839 126.4C784.705 126.4 780.939 125.333 777.539 123.2C774.205 121.067 771.572 118 769.639 114C767.705 109.933 766.739 105.233 766.739 99.9C766.739 94.5 767.705 89.7 769.639 85.5C771.639 81.3 774.405 78.0333 777.939 75.7C781.472 73.3 785.505 72.1 790.039 72.1ZM825.771 123.5H836.771C840.905 123.5 844.138 122.233 846.471 119.7C848.805 117.1 850.205 113 850.671 107.4H852.971C852.971 116.133 853.105 122.133 853.371 125.4C848.105 125.133 841.905 125 834.771 125C828.438 125 821.705 125.167 814.571 125.5L843.471 75H832.471C828.005 75 824.671 76.2667 822.471 78.8C820.338 81.2667 819.038 85.3667 818.571 91.1H816.271C816.271 82.3667 816.138 76.3667 815.871 73.1C821.138 73.3667 827.338 73.5 834.471 73.5C840.805 73.5 847.538 73.3333 854.671 73L825.771 123.5Z" fill="#222222"></path><path d="M465.718 82.1V108.2C465.718 112.2 466.118 115.15 466.918 117.05C467.818 118.85 469.318 120.05 471.418 120.65C473.618 121.25 477.068 121.6 481.768 121.7V125C469.468 124.7 460.318 124.55 454.318 124.55C449.318 124.55 443.018 124.65 435.418 124.85L430.618 125V122C433.918 121.8 436.318 121.4 437.818 120.8C439.418 120.2 440.468 119.05 440.968 117.35C441.568 115.65 441.868 112.9 441.868 109.1V34.7C441.868 30.9 441.568 28.15 440.968 26.45C440.468 24.75 439.418 23.6 437.818 23C436.318 22.4 433.918 22 430.618 21.8V18.8C435.718 19.1 443.318 19.25 453.418 19.25L470.068 19.1C472.068 19 474.368 18.95 476.968 18.95C490.468 18.95 500.768 21.65 507.868 27.05C514.968 32.35 518.518 39.5 518.518 48.5C518.518 54 517.118 59.3 514.318 64.4C511.518 69.4 506.768 73.6 500.068 77C493.468 80.4 484.668 82.1 473.668 82.1H465.718ZM475.018 21.8C472.318 21.8 470.318 22.15 469.018 22.85C467.818 23.55 466.968 24.8 466.468 26.6C465.968 28.4 465.718 31.1 465.718 34.7V79.1H472.168C480.268 79.1 485.868 76.5 488.968 71.3C492.068 66.1 493.618 59.05 493.618 50.15C493.618 40.45 492.168 33.3 489.268 28.7C486.468 24.1 481.718 21.8 475.018 21.8ZM543.254 126.05C536.854 126.05 532.054 124.4 528.854 121.1C525.754 117.8 524.204 113.45 524.204 108.05C524.204 103.55 525.354 99.85 527.654 96.95C530.054 93.95 532.904 91.65 536.204 90.05C539.604 88.45 543.904 86.75 549.104 84.95C554.604 83.05 558.604 81.35 561.104 79.85C563.704 78.25 565.004 76.1 565.004 73.4V61.7C565.004 57.5 564.004 54.25 562.004 51.95C560.104 49.55 557.104 48.35 553.004 48.35C548.204 48.35 544.554 49.55 542.054 51.95C544.854 52.95 547.004 54.45 548.504 56.45C550.104 58.45 550.904 60.8 550.904 63.5C550.904 66.9 549.754 69.6 547.454 71.6C545.154 73.6 542.354 74.6 539.054 74.6C535.554 74.6 532.854 73.5 530.954 71.3C529.054 69.1 528.104 66.35 528.104 63.05C528.104 60.25 528.754 57.9 530.054 56C531.454 54 533.554 52.15 536.354 50.45C539.054 48.85 542.354 47.6 546.254 46.7C550.254 45.8 554.604 45.35 559.304 45.35C564.204 45.35 568.454 45.85 572.054 46.85C575.654 47.85 578.654 49.55 581.054 51.95C583.254 54.15 584.704 56.85 585.404 60.05C586.204 63.25 586.604 67.6 586.604 73.1V113.9C586.604 116.3 586.804 118 587.204 119C587.704 120 588.604 120.5 589.904 120.5C591.404 120.5 593.204 119.65 595.304 117.95L596.804 120.5C592.304 124.2 586.804 126.05 580.304 126.05C574.804 126.05 570.954 124.95 568.754 122.75C566.554 120.55 565.404 117.6 565.304 113.9C560.304 122 552.954 126.05 543.254 126.05ZM554.804 116.45C558.704 116.45 562.104 114.4 565.004 110.3V79.55C563.804 81.55 561.254 83.75 557.354 86.15C553.454 88.65 550.504 91.15 548.504 93.65C546.504 96.15 545.504 99.75 545.504 104.45C545.504 108.55 546.354 111.6 548.054 113.6C549.754 115.5 552.004 116.45 554.804 116.45ZM656.89 45.35C664.49 45.35 669.99 47.3 673.39 51.2C675.09 53.1 676.29 55.55 676.99 58.55C677.69 61.55 678.04 65.6 678.04 70.7V111.05C678.04 115.15 678.74 118 680.14 119.6C681.64 121.1 684.14 121.85 687.64 121.85V125C677.64 124.6 671.04 124.4 667.84 124.4C664.84 124.4 658.34 124.6 648.34 125V121.85C651.34 121.85 653.44 121.1 654.64 119.6C655.84 118 656.44 115.15 656.44 111.05V64.4C656.44 60.3 655.74 57.2 654.34 55.1C653.04 53 650.64 51.95 647.14 51.95C643.04 51.95 639.54 53.65 636.64 57.05C633.74 60.35 632.29 64.45 632.29 69.35V111.05C632.29 115.15 632.89 118 634.09 119.6C635.29 121.1 637.39 121.85 640.39 121.85V125C631.19 124.6 624.99 124.4 621.79 124.4C618.79 124.4 611.89 124.6 601.09 125V121.85C604.69 121.85 607.19 121.1 608.59 119.6C609.99 118 610.69 115.15 610.69 111.05V63.8C610.69 59.2 609.99 55.85 608.59 53.75C607.19 51.65 604.69 50.6 601.09 50.6V47.45C604.29 47.75 607.39 47.9 610.39 47.9C619.29 47.9 626.59 47.2 632.29 45.8V59.3C636.79 50 644.99 45.35 656.89 45.35ZM724.429 111.05C724.429 115.15 725.129 118 726.529 119.6C728.029 121.1 730.529 121.85 734.029 121.85V125C724.029 124.6 717.379 124.4 714.079 124.4C710.979 124.4 704.029 124.6 693.229 125V121.85C696.829 121.85 699.329 121.1 700.729 119.6C702.129 118 702.829 115.15 702.829 111.05V63.8C702.829 59.2 702.129 55.85 700.729 53.75C699.329 51.65 696.829 50.6 693.229 50.6V47.45C696.429 47.75 699.529 47.9 702.529 47.9C711.429 47.9 718.729 47.2 724.429 45.8V111.05ZM729.529 2.45C731.329 3.75 732.229 5.65 732.229 8.14999C732.229 10.25 731.479 12.3 729.979 14.3C728.879 15.6 727.479 16.95 725.779 18.35C724.179 19.65 722.429 21 720.529 22.4C714.529 26.6 709.229 30.85 704.629 35.15L702.979 33.8C705.679 28.9 708.479 22.75 711.379 15.35C712.679 12.25 713.679 9.95 714.379 8.45C715.179 6.85 716.129 5.39999 717.229 4.09999C719.129 1.69999 721.479 0.499994 724.279 0.499994C726.379 0.499994 728.129 1.14999 729.529 2.45Z" fill="#C03657"></path></svg>