<svg xmlns="http://www.w3.org/2000/svg" width="683" height="114" viewBox="0 0 683 114" fill="none"><path d="M30.5 112C28.2 112 27.05 111.05 27.05 109.15V108.55C27.05 107.35 28.1 105.55 30.2 103.15C32.4 100.65 33.5 98.15 33.5 95.65V16.75H25.55C23.25 16.75 21.15 17.7 19.25 19.6C17.45 21.5 16 23.6 14.9 25.9C13.9 28.1 12.65 30.15 11.15 32.05C9.65 33.95 8.15 34.9 6.65 34.9H4.1C1.3 34.9 0.05 33.45 0.35 30.55L3.35 10.15C3.65 7.05 5.35 5.49999 8.45 5.49999H85.55C88.55 5.49999 90.25 7.05 90.65 10.15L93.8 30.7C94 32 93.75 33.05 93.05 33.85C92.35 34.55 91.35 34.9 90.05 34.9H87.5C86 34.9 84.5 33.95 83 32.05C81.5 30.15 80.2 28.1 79.1 25.9C78 23.6 76.5 21.5 74.6 19.6C72.7 17.7 70.6 16.75 68.3 16.75H60.5V95.65C60.5 98.15 61.55 100.65 63.65 103.15C65.85 105.55 66.95 107.35 66.95 108.55V109.15C66.95 111.05 65.75 112 63.35 112H30.5ZM163.032 40C165.332 40 166.482 40.95 166.482 42.85V43.45C166.482 44.85 165.032 46.8 162.132 49.3C159.232 51.8 157.332 54.15 156.432 56.35L137.082 108.1C136.182 110.7 134.432 112 131.832 112H118.632C116.332 112 114.532 110.7 113.232 108.1L90.432 56.35C89.632 54.55 88.082 52.35 85.782 49.75C83.582 47.05 82.482 44.95 82.482 43.45V42.85C82.482 40.95 83.632 40 85.932 40H120.432C122.632 40 123.732 41 123.732 43V43.6C123.732 44.6 123.282 45.8 122.382 47.2C121.482 48.5 120.832 49.7 120.432 50.8C120.132 51.9 120.382 53.9 121.182 56.8L134.082 90.7L145.032 60.55C146.132 56.35 146.282 53.45 145.482 51.85C144.682 50.15 143.482 48.6 141.882 47.2C140.382 45.7 139.632 44.5 139.632 43.6V43C139.632 41 140.782 40 143.082 40H163.032ZM206.444 113.5C194.844 113.5 184.994 109.95 176.894 102.85C168.894 95.65 164.894 86.65 164.894 75.85C164.894 65.05 168.894 56.15 176.894 49.15C184.894 42.05 194.394 38.5 205.394 38.5C216.794 38.5 226.494 42.05 234.494 49.15C242.494 56.25 246.494 65.25 246.494 76.15C246.494 86.95 242.594 95.9 234.794 103C226.994 110 217.544 113.5 206.444 113.5ZM209.594 106.15C215.994 106.15 219.194 100 219.194 87.7C219.194 83.2 218.544 77.85 217.244 71.65C216.044 65.45 213.944 59.6 210.944 54.1C208.044 48.6 204.794 45.85 201.194 45.85C197.694 45.85 195.194 47.4 193.694 50.5C192.194 53.6 191.444 58.3 191.444 64.6C191.444 67.9 191.844 71.8 192.644 76.3C193.444 80.8 194.544 85.35 195.944 89.95C197.344 94.45 199.244 98.3 201.644 101.5C204.144 104.6 206.794 106.15 209.594 106.15ZM303.781 38.5C308.081 38.5 311.481 39.9 313.981 42.7C316.581 45.5 317.881 49.05 317.881 53.35C317.881 62.75 314.031 67.45 306.331 67.45C303.231 67.45 300.881 66.75 299.281 65.35C297.681 63.85 296.731 62.2 296.431 60.4C296.231 58.6 295.731 57 294.931 55.6C294.131 54.1 292.931 53.35 291.331 53.35C287.631 53.35 285.781 58.15 285.781 67.75V95.65C285.781 98.15 287.081 100.65 289.681 103.15C292.381 105.55 293.731 107.35 293.731 108.55V109.15C293.731 111.05 292.531 112 290.131 112H257.881C255.481 112 254.281 111.05 254.281 109.15V108.55C254.281 107.35 255.281 105.55 257.281 103.15C259.281 100.65 260.281 98.15 260.281 95.65V65.8C260.281 63.8 259.681 62.1 258.481 60.7C257.281 59.3 256.081 58.1 254.881 57.1C253.681 56.1 253.081 55 253.081 53.8V53.35C253.081 51.65 254.231 50.2 256.531 49L277.681 39.1C279.681 38.4 281.081 38.35 281.881 38.95C282.681 39.55 283.081 40.7 283.081 42.4V53.35C286.481 43.45 293.381 38.5 303.781 38.5ZM361.718 113.5C350.118 113.5 340.268 109.95 332.168 102.85C324.168 95.65 320.168 86.65 320.168 75.85C320.168 65.05 324.168 56.15 332.168 49.15C340.168 42.05 349.668 38.5 360.668 38.5C372.068 38.5 381.768 42.05 389.768 49.15C397.768 56.25 401.768 65.25 401.768 76.15C401.768 86.95 397.868 95.9 390.068 103C382.268 110 372.818 113.5 361.718 113.5ZM364.868 106.15C371.268 106.15 374.468 100 374.468 87.7C374.468 83.2 373.818 77.85 372.518 71.65C371.318 65.45 369.218 59.6 366.218 54.1C363.318 48.6 360.068 45.85 356.468 45.85C352.968 45.85 350.468 47.4 348.968 50.5C347.468 53.6 346.718 58.3 346.718 64.6C346.718 67.9 347.118 71.8 347.918 76.3C348.718 80.8 349.818 85.35 351.218 89.95C352.618 94.45 354.518 98.3 356.918 101.5C359.418 104.6 362.068 106.15 364.868 106.15ZM482.221 40C484.521 40 485.671 40.95 485.671 42.85V43.45C485.671 44.85 484.221 46.8 481.321 49.3C478.421 51.8 476.521 54.15 475.621 56.35L456.271 108.1C455.371 110.7 453.621 112 451.021 112H437.821C435.521 112 433.721 110.7 432.421 108.1L409.621 56.35C408.821 54.55 407.271 52.35 404.971 49.75C402.771 47.05 401.671 44.95 401.671 43.45V42.85C401.671 40.95 402.821 40 405.121 40H439.621C441.821 40 442.921 41 442.921 43V43.6C442.921 44.6 442.471 45.8 441.571 47.2C440.671 48.5 440.021 49.7 439.621 50.8C439.321 51.9 439.571 53.9 440.371 56.8L453.271 90.7L464.221 60.55C465.321 56.35 465.471 53.45 464.671 51.85C463.871 50.15 462.671 48.6 461.071 47.2C459.571 45.7 458.821 44.5 458.821 43.6V43C458.821 41 459.971 40 462.271 40H482.221ZM505.084 30.1C502.184 30.8 500.134 30.15 498.934 28.15C497.534 25.75 497.884 23.65 499.984 21.85L525.634 1.75C527.534 0.349998 529.284 -0.150005 530.884 0.24999C532.484 0.549992 533.734 1.64999 534.634 3.54999L539.434 13.75C540.434 15.55 540.584 17.25 539.884 18.85C539.284 20.35 537.984 21.35 535.984 21.85L505.084 30.1ZM546.184 88.3C547.284 87.2 548.484 86.9 549.784 87.4C551.184 87.8 551.834 88.8 551.734 90.4C551.534 95.4 548.634 100.5 543.034 105.7C537.434 110.9 530.184 113.5 521.284 113.5C510.384 113.5 501.484 110 494.584 103C487.684 96 484.234 86.85 484.234 75.55C484.234 64.75 487.834 55.9 495.034 49C502.334 42 511.034 38.5 521.134 38.5C530.234 38.5 537.284 40.6 542.284 44.8C547.284 49 549.784 53.75 549.784 59.05C549.784 63.25 547.834 66.35 543.934 68.35L514.084 85.15C518.184 91.65 523.884 94.9 531.184 94.9C534.284 94.9 537.184 94.3 539.884 93.1C542.684 91.8 544.784 90.2 546.184 88.3ZM518.434 45.85C515.434 45.85 512.984 47.35 511.084 50.35C509.284 53.35 508.384 57.1 508.384 61.6C508.384 67.6 509.134 72.85 510.634 77.35L524.584 68.95C527.184 67.15 528.484 64.6 528.484 61.3C528.484 58 527.634 54.6 525.934 51.1C524.334 47.6 521.834 45.85 518.434 45.85Z" fill="#098658"></path><path d="M575.422 110.6C573.489 112.2 570.989 113 567.922 113C564.856 113 562.322 112.2 560.322 110.6C558.322 109 557.322 106.633 557.322 103.5C557.322 100.433 558.322 98.1 560.322 96.5C562.322 94.9 564.856 94.1 567.922 94.1C570.989 94.1 573.489 94.9 575.422 96.5C577.422 98.1 578.422 100.433 578.422 103.5C578.422 106.567 577.422 108.933 575.422 110.6ZM609.078 113C601.478 113 595.244 110.533 590.378 105.6C585.511 100.6 583.078 94.7 583.078 87.9C583.078 80.3667 585.544 74.3667 590.478 69.9C595.411 65.3667 601.411 63.0667 608.478 63C614.411 62.9333 619.444 64.3 623.578 67.1C627.711 69.8333 629.778 73.4 629.778 77.8C629.778 79.4667 629.178 80.8667 627.978 82C626.844 83.1333 625.011 83.6667 622.478 83.6C620.211 83.4667 618.244 82.5667 616.578 80.9C614.978 79.2333 613.811 77.4333 613.078 75.5C612.344 73.5667 611.344 71.8333 610.078 70.3C608.811 68.7 607.378 67.9 605.778 67.9C603.711 67.9667 602.011 69.0667 600.678 71.2C599.411 73.3333 598.778 75.9667 598.778 79.1C598.778 85.6333 600.244 90.8667 603.178 94.8C606.178 98.7333 610.144 100.7 615.078 100.7C619.544 100.7 623.244 98.7667 626.178 94.9C626.844 94.1 627.644 93.8333 628.578 94.1C629.511 94.3 629.978 94.9333 629.978 96C629.844 100.667 627.944 104.667 624.278 108C620.611 111.333 615.544 113 609.078 113ZM680.259 96C682.259 96 682.959 97.0333 682.359 99.1L679.359 109.6C678.892 111.2 678.059 112 676.859 112H636.759C636.092 112 635.492 111.767 634.959 111.3C634.426 110.833 634.159 110.267 634.159 109.6V108.3C634.159 107.567 634.892 106.2 636.359 104.2L659.859 68.4H651.359C649.892 68.4 648.459 68.9667 647.059 70.1C645.659 71.1667 644.526 72.3667 643.659 73.7C642.792 75.0333 641.759 76.2667 640.559 77.4C639.359 78.4667 638.159 79 636.959 79H636.359C635.292 79 634.559 78.6333 634.159 77.9C633.759 77.1667 633.726 76.2667 634.059 75.2L636.759 67.1C637.159 65.9 637.559 65.1 637.959 64.7C638.426 64.2333 639.192 64 640.259 64H677.459C678.126 64 678.659 64.2 679.059 64.6C679.526 64.9333 679.759 65.3667 679.759 65.9V66.9C679.759 67.5667 678.726 69.5333 676.659 72.8L653.859 107.6H663.459C665.192 107.6 666.859 107 668.459 105.8C670.126 104.6 671.459 103.267 672.459 101.8C673.526 100.333 674.692 99 675.959 97.8C677.226 96.6 678.426 96 679.559 96H680.259Z" fill="#F76C4F"></path></svg>